<svg xmlns="http://www.w3.org/2000/svg" width="26.864" height="26.301" viewBox="0 0 26.864 26.301">
  <g id="settings-icon" transform="translate(-2.608 -273.37)">
    <g id="Groupe_3" data-name="Groupe 3" transform="translate(2.608 273.37)">
      <g id="Groupe_2" data-name="Groupe 2">
        <g id="Groupe_1" data-name="Groupe 1">
          <path id="Tracé_5" data-name="Tracé 5" d="M215.126-214.479a4.268,4.268,0,0,1-4.306,4.216,4.269,4.269,0,0,1-4.307-4.216,4.267,4.267,0,0,1,4.307-4.212,4.265,4.265,0,0,1,4.306,4.212m5.433-3.014-.679-1.612a28.974,28.974,0,0,0,1.438-3.7l-2.088-2.039a28.723,28.723,0,0,0-3.706,1.484l-1.643-.663a28.967,28.967,0,0,0-1.65-3.608h-2.948a27.556,27.556,0,0,0-1.548,3.617l-1.639.665a30.481,30.481,0,0,0-3.776-1.408l-2.085,2.042a27.541,27.541,0,0,0,1.515,3.629l-.678,1.609a30.782,30.782,0,0,0-3.686,1.611v2.889a28.6,28.6,0,0,0,3.694,1.518l.678,1.606a29.314,29.314,0,0,0-1.439,3.693l2.088,2.044a29.317,29.317,0,0,0,3.7-1.486l1.644.666a28.685,28.685,0,0,0,1.652,3.605h2.948a27.555,27.555,0,0,0,1.548-3.617l1.645-.666a30.72,30.72,0,0,0,3.769,1.411l2.089-2.042a27.493,27.493,0,0,0-1.519-3.629l.676-1.608a30.421,30.421,0,0,0,3.687-1.616v-2.888a28.822,28.822,0,0,0-3.692-1.511" transform="translate(-197.386 227.628)" fill="rgba(255,255,255,0.73)"/>
        </g>
      </g>
    </g>
  </g>
</svg>
